# xmcd CD database file
#
# Track frame offsets:
#	150
#	28840
#	46987
#	67330
#	89545
#	111355
#	149472
#	179955
#
# Disc length: 2644 seconds
#
# Revision: 0
# Processed by: cddbd v1.4PL0 Copyright (c) Steve Scherf et al.
# Submitted via: CDex 1.50beta10
#
DISCID=820a5208
DTITLE=Bob James - 12
DYEAR=1900
DGENRE=Jazz
TTITLE0=No Pay, No Play
TTITLE1=Courtship
TTITLE2=Moonbop
TTITLE3=I Need More Of You
TTITLE4=Ruby, Ruby, Ruby
TTITLE5=Midnight
TTITLE6=Legacy
TTITLE7=Synco Sonata
EXTD=
EXTT0=
EXTT1=
EXTT2=
EXTT3=
EXTT4=
EXTT5=
EXTT6=
EXTT7=
PLAYORDER=
